# Blender 3.6.3
# www.blender.org
mtllib cockpit.mtl
o Circle
v 0.059046 2.016108 -0.843123
v 0.059046 2.039803 0.785918
v 0.000000 0.960469 2.226618
v 0.000000 -0.895303 2.253611
v 0.000000 -1.954578 0.843123
v -0.000000 -1.978273 -0.785918
v -0.000000 -0.960469 -2.226618
v -0.000000 0.895303 -2.253611
v 1.400948 1.445862 5.570621
v 1.400948 -1.347763 5.638154
v 1.400948 -1.445862 -5.570621
v 1.400948 1.347763 -5.638154
v 4.285872 3.352543 -0.843123
v 4.285872 3.376238 0.785918
v 4.065209 -2.467059 0.843123
v 4.065209 -2.490754 -0.785918
v 11.554303 1.445862 5.570621
v 11.554303 -1.347762 5.638154
v 11.554303 -1.445862 -5.570621
v 11.554303 1.347763 -5.638154
v 0.143107 1.947831 -0.999282
v 0.143107 0.995180 -2.267792
v 1.403037 1.402096 -5.311653
v 3.997570 3.205079 -0.999282
v 0.162705 1.072594 2.239853
v 0.162705 1.973917 0.964033
v 1.403323 1.502437 5.201157
v 3.958086 3.211894 0.964033
v 0.075837 0.793953 -2.434268
v 0.075837 -0.860902 -2.410197
v 1.325110 1.197427 -5.452380
v 1.325110 -1.293744 -5.392159
v 0.084497 -0.782380 2.454896
v 0.084497 0.849532 2.431160
v 1.316451 -1.180260 5.431166
v 1.316451 1.276373 5.371780
v 0.000000 1.819310 0.722766
v -0.000000 1.797519 -0.775374
v 0.000000 0.883291 2.047698
v 0.000000 -0.823361 2.072523
v 0.000000 -1.797519 0.775374
v -0.000000 -1.819310 -0.722766
v -0.000000 -0.883291 -2.047698
v -0.000000 0.823361 -2.072523
v 0.287800 1.864896 0.729540
v 0.287800 1.842890 -0.783343
v 0.287800 0.919666 2.067511
v 0.287800 -0.803781 2.092579
v 0.287800 -1.787526 0.782666
v 0.287800 -1.809531 -0.730217
v 0.287800 -0.864301 -2.068188
v 0.287800 0.859146 -2.093257
v 1.439613 -1.223979 5.235789
v 1.439613 1.370448 5.173072
v 1.439612 1.279343 -5.236466
v 1.439613 -1.315083 -5.173750
v 4.118829 3.163179 0.729540
v 4.118829 3.141174 -0.783343
v 3.913900 -2.285470 -0.730217
v 3.913900 -2.263464 0.782666
v 10.868988 -1.223979 5.235789
v 10.868988 1.370448 5.173072
v 10.868988 1.279343 -5.236466
v 10.868988 -1.315083 -5.173750
v 0.271461 1.836624 -0.928367
v 0.271461 0.951902 -2.106427
v 1.441553 1.329803 -4.933247
v 3.851084 3.004225 -0.928367
v 0.289662 1.023796 2.079803
v 0.289662 1.860850 0.894954
v 1.441819 1.422989 4.829952
v 3.814415 3.010554 0.894954
v 0.208988 0.765023 -2.261032
v 0.208988 -0.771833 -2.238678
v 1.369182 1.139727 -5.063939
v 1.369183 -1.173812 -5.008013
v 0.217031 -0.698910 2.279513
v 0.217031 0.816639 2.257468
v 1.361140 -1.068420 5.043561
v 1.361140 1.213045 4.988410
v 0.138559 1.717267 0.670891
v 0.138558 1.697030 -0.720425
v 0.138559 0.847991 1.901350
v 0.138559 -0.736969 1.924404
v 0.138559 -1.641665 0.719748
v 0.138558 -1.661903 -0.671568
v 0.138558 -0.792626 -1.902027
v 0.138558 0.792334 -1.925081
vn -0.9232 -0.0056 -0.3844
vn -0.9232 0.0056 0.3844
vn -0.1251 -0.9920 0.0144
vn -0.3833 0.9134 0.1374
vn -0.2779 0.8657 -0.4163
vn -0.2868 -0.9393 -0.1885
vn -0.2909 -0.9349 0.2033
vn -1.0000 -0.0000 -0.0000
vn -0.0000 -0.0242 -0.9997
vn -0.0000 0.0242 0.9997
vn -0.0000 0.9274 0.3741
vn -0.0000 0.9226 -0.3857
vn -0.0000 -0.9738 0.2273
vn -0.0000 -0.9770 -0.2134
vn 0.1430 -0.9897 0.0094
vn 0.2613 0.9652 -0.0092
vn -0.5761 0.8069 -0.1306
vn -0.4912 0.6940 -0.5263
vn -0.3851 0.9108 -0.1491
vn -0.2814 0.8769 0.3897
vn -0.4878 0.7104 0.5074
vn -0.5699 0.8128 0.1208
vn -0.9236 -0.0078 -0.3833
vn -0.9231 -0.0093 -0.3844
vn -0.9227 -0.0078 -0.3854
vn -0.9236 0.0078 0.3833
vn -0.9227 0.0078 0.3854
vn -0.9231 0.0093 0.3844
vn -0.9657 0.2597 -0.0038
vn -0.9880 0.1319 -0.0805
vn -0.9881 0.1338 0.0764
vn 0.9064 -0.0061 -0.4223
vn 0.9362 0.0051 0.3515
vn 0.1301 0.9914 -0.0144
vn 0.3833 -0.9134 -0.1374
vn 0.3118 -0.9370 0.1573
vn 0.2999 0.9365 0.1819
vn 0.3042 0.9321 -0.1966
vn 0.7460 0.0097 0.6659
vn -0.0000 -0.9274 -0.3741
vn -0.0000 -0.9226 0.3857
vn -0.0000 0.9738 -0.2273
vn -0.0000 0.9770 0.2134
vn -0.1430 0.9897 -0.0094
vn -0.2613 -0.9652 0.0092
vn 0.8474 -0.4582 0.2683
vn 0.9808 0.1561 -0.1172
vn 0.3851 -0.9108 0.1491
vn 0.3118 -0.9368 -0.1585
vn 0.9998 -0.0165 -0.0117
vn 0.8114 -0.5321 -0.2420
vn 0.8186 -0.5176 0.2491
vn 0.9231 0.0093 0.3844
vn 0.8150 0.5253 0.2445
vn 0.8395 0.4757 -0.2627
vn 0.8359 -0.4843 -0.2585
vn 0.9231 -0.0093 -0.3844
vn 0.7012 0.7129 -0.0104
vn 0.7460 -0.0097 -0.6659
vn 0.7012 -0.7129 0.0104
vn 0.7190 -0.5557 0.4173
vn 0.7190 0.5676 0.4010
vn 0.7190 0.5557 -0.4173
vn 0.7190 -0.5676 -0.4010
vn -0.0867 0.2653 -0.9603
vn -0.7273 -0.0100 -0.6862
vn 0.7213 0.5657 0.3997
vn -0.7519 0.5272 -0.3959
vn 0.1281 0.9724 -0.1948
vn -0.7490 0.6625 -0.0096
vn 0.1320 -0.4046 0.9049
vn -0.7521 0.5383 0.3803
vn 0.7958 0.0088 0.6055
vn -0.7602 0.6147 -0.2104
vn -0.7276 0.0100 0.6859
vn 0.1826 0.9831 -0.0086
vn -0.9933 -0.0028 -0.1153
vn -0.6332 -0.6189 0.4648
vn 0.1044 -0.9945 0.0087
vn -0.0369 -0.9866 0.1587
vn 0.7156 0.5585 -0.4194
vn -0.2728 0.9323 0.2375
vn 0.1088 0.9784 0.1758
vn 0.5034 -0.0209 -0.8638
vn 0.1358 -0.4165 -0.8989
vn 0.5040 0.0209 0.8634
vn 0.7921 -0.0089 -0.6103
vn -0.7580 0.6221 0.1960
vn -0.9936 0.0027 0.1131
vn 0.6056 0.7957 -0.0116
vn -0.2889 0.9228 -0.2550
vn -0.7858 0.6184 -0.0090
vn -0.5901 -0.8072 0.0117
vn -0.0279 -0.9892 -0.1438
vn -0.0922 0.2821 0.9549
vn -0.6329 -0.6323 -0.4467
vt 0.000000 0.000000
s 0
f 8/1/1 29/1/1 30/1/1 7/1/1
f 4/1/2 33/1/2 34/1/2 3/1/2
f 5/1/3 6/1/3 16/1/3 15/1/3
f 14/1/4 28/1/4 27/1/4 9/1/4
f 13/1/5 24/1/5 21/1/5 1/1/5
f 6/1/6 7/1/6 11/1/6 16/1/6
f 5/1/7 15/1/7 10/1/7 4/1/7
f 7/1/8 43/1/8 44/1/8 8/1/8
f 11/1/9 12/1/9 20/1/9 19/1/9
f 9/1/10 10/1/10 18/1/10 17/1/10
f 9/1/11 17/1/11 14/1/11
f 13/1/12 20/1/12 12/1/12
f 15/1/13 18/1/13 10/1/13
f 11/1/14 19/1/14 16/1/14
f 16/1/15 19/1/15 18/1/15 15/1/15
f 13/1/16 14/1/16 17/1/16 20/1/16
f 8/1/17 22/1/17 23/1/17 12/1/17
f 1/1/18 21/1/18 22/1/18 8/1/18
f 12/1/19 23/1/19 24/1/19 13/1/19
f 2/1/20 26/1/20 28/1/20 14/1/20
f 3/1/21 25/1/21 26/1/21 2/1/21
f 9/1/22 27/1/22 25/1/22 3/1/22
f 12/1/23 31/1/23 29/1/23 8/1/23
f 11/1/24 32/1/24 31/1/24 12/1/24
f 7/1/25 30/1/25 32/1/25 11/1/25
f 10/1/26 35/1/26 33/1/26 4/1/26
f 3/1/27 34/1/27 36/1/27 9/1/27
f 9/1/28 36/1/28 35/1/28 10/1/28
f 5/1/8 41/1/8 42/1/8 6/1/8
f 3/1/8 39/1/8 40/1/8 4/1/8
f 1/1/29 38/1/29 37/1/29 2/1/29
f 8/1/30 44/1/30 38/1/30 1/1/30
f 6/1/8 42/1/8 43/1/8 7/1/8
f 4/1/8 40/1/8 41/1/8 5/1/8
f 2/1/31 37/1/31 39/1/31 3/1/31
f 52/1/32 51/1/32 74/1/32 73/1/32
f 48/1/33 47/1/33 78/1/33 77/1/33
f 49/1/34 60/1/34 59/1/34 50/1/34
f 57/1/35 54/1/35 71/1/35 72/1/35
f 58/1/36 46/1/36 65/1/36 68/1/36
f 50/1/37 59/1/37 56/1/37 51/1/37
f 49/1/38 48/1/38 53/1/38 60/1/38
f 51/1/39 52/1/39 88/1/39 87/1/39
f 56/1/10 64/1/10 63/1/10 55/1/10
f 54/1/9 62/1/9 61/1/9 53/1/9
f 54/1/40 57/1/40 62/1/40
f 58/1/41 55/1/41 63/1/41
f 60/1/42 53/1/42 61/1/42
f 56/1/43 59/1/43 64/1/43
f 59/1/44 60/1/44 61/1/44 64/1/44
f 58/1/45 63/1/45 62/1/45 57/1/45
f 52/1/46 55/1/46 67/1/46 66/1/46
f 46/1/47 52/1/47 66/1/47 65/1/47
f 55/1/48 58/1/48 68/1/48 67/1/48
f 45/1/49 57/1/49 72/1/49 70/1/49
f 47/1/50 45/1/50 70/1/50 69/1/50
f 54/1/51 47/1/51 69/1/51 71/1/51
f 55/1/52 52/1/52 73/1/52 75/1/52
f 56/1/53 55/1/53 75/1/53 76/1/53
f 51/1/54 56/1/54 76/1/54 74/1/54
f 53/1/55 48/1/55 77/1/55 79/1/55
f 47/1/56 54/1/56 80/1/56 78/1/56
f 54/1/57 53/1/57 79/1/57 80/1/57
f 49/1/58 50/1/58 86/1/58 85/1/58
f 47/1/59 48/1/59 84/1/59 83/1/59
f 46/1/60 45/1/60 81/1/60 82/1/60
f 52/1/61 46/1/61 82/1/61 88/1/61
f 50/1/62 51/1/62 87/1/62 86/1/62
f 48/1/63 49/1/63 85/1/63 84/1/63
f 45/1/64 47/1/64 83/1/64 81/1/64
f 2/1/65 14/1/65 57/1/65 45/1/65
f 40/1/66 39/1/66 83/1/66 84/1/66
f 26/1/67 25/1/67 69/1/67 70/1/67
f 41/1/68 40/1/68 84/1/68 85/1/68
f 25/1/69 27/1/69 71/1/69 69/1/69
f 42/1/70 41/1/70 85/1/70 86/1/70
f 28/1/71 26/1/71 70/1/71 72/1/71
f 43/1/72 42/1/72 86/1/72 87/1/72
f 34/1/73 33/1/73 77/1/73 78/1/73
f 27/1/74 28/1/74 72/1/74 71/1/74
f 44/1/75 43/1/75 87/1/75 88/1/75
f 18/1/76 19/1/76 64/1/76 61/1/76
f 35/1/77 36/1/77 80/1/77 79/1/77
f 38/1/78 44/1/78 88/1/78 82/1/78
f 20/1/79 17/1/79 62/1/79 63/1/79
f 36/1/80 34/1/80 78/1/80 80/1/80
f 22/1/81 21/1/81 65/1/81 66/1/81
f 33/1/82 35/1/82 79/1/82 77/1/82
f 23/1/83 22/1/83 66/1/83 67/1/83
f 17/1/84 18/1/84 61/1/84 62/1/84
f 21/1/85 24/1/85 68/1/85 65/1/85
f 19/1/86 20/1/86 63/1/86 64/1/86
f 30/1/87 29/1/87 73/1/87 74/1/87
f 24/1/88 23/1/88 67/1/88 68/1/88
f 31/1/89 32/1/89 76/1/89 75/1/89
f 1/1/90 2/1/90 45/1/90 46/1/90
f 32/1/91 30/1/91 74/1/91 76/1/91
f 14/1/92 13/1/92 58/1/92 57/1/92
f 37/1/93 38/1/93 82/1/93 81/1/93
f 29/1/94 31/1/94 75/1/94 73/1/94
f 13/1/95 1/1/95 46/1/95 58/1/95
f 39/1/96 37/1/96 81/1/96 83/1/96
