# Blender 3.6.3
# www.blender.org
mtllib sq.mtl
o Plane
v -1.000000 -1.000000 -0.000000
v 1.000000 -1.000000 -0.000000
v -1.000000 1.000000 0.000000
v 1.000000 1.000000 0.000000
v -0.972454 -0.972454 -0.000000
v 0.972454 -0.972454 -0.000000
v -0.972454 0.972454 0.000000
v 0.972454 0.972454 0.000000
vn -0.0000 -0.0000 1.0000
vt 1.000000 1.000000
vt 0.000000 1.000000
vt 0.000000 0.000000
vt 1.000000 0.000000
s 0
f 4/1/1 3/2/1 7/2/1 8/1/1
f 1/3/1 2/4/1 6/4/1 5/3/1
f 2/4/1 4/1/1 8/1/1 6/4/1
f 3/2/1 1/3/1 5/3/1 7/2/1
